<!-- Generated by IcoMoon.io -->
<svg version="1.1" xmlns="http://www.w3.org/2000/svg" width="64" height="32" viewBox="0 0 64 32">
<title>envelope</title>
<path fill="#2196f3" d="M3.093 0h-2.773c-0.176 0-0.32 0.134-0.32 0.299v1.792c0 0.165 0.144 0.299 0.32 0.299h2.773c0.176 0 0.32-0.134 0.32-0.299v-1.792c0-0.165-0.144-0.299-0.32-0.299zM3.093 0.199c0.014 0 0.028 0.003 0.041 0.008l-1.428 1.155-1.428-1.155c0.012-0.005 0.026-0.008 0.041-0.008h2.773zM3.093 2.191h-2.773c-0.059 0-0.107-0.045-0.107-0.099v-1.674l1.423 1.152c0.019 0.015 0.043 0.024 0.069 0.024 0 0 0 0 0.001 0h-0c0 0 0 0 0.001 0 0.026 0 0.050-0.009 0.070-0.024l-0 0 1.423-1.152v1.674c0 0.055-0.048 0.099-0.107 0.099z"></path>
</svg>
