<!-- Generated by IcoMoon.io -->
<svg version="1.1" xmlns="http://www.w3.org/2000/svg" width="64" height="32" viewBox="0 0 64 32">
<title>telephone</title>
<path fill="#757575" d="M1.813 0h-1.493c-0.176 0-0.32 0.134-0.32 0.299v2.589c0 0.165 0.144 0.299 0.32 0.299h1.493c0.176 0 0.32-0.134 0.32-0.299v-2.589c0-0.165-0.144-0.299-0.32-0.299zM0.32 0.199h1.493c0.059 0 0.107 0.045 0.107 0.1v2.091h-1.707v-2.091c0-0.055 0.048-0.1 0.107-0.1zM1.813 2.987h-1.493c-0.059 0-0.107-0.045-0.107-0.1v-0.299h1.707v0.299c0 0.055-0.048 0.099-0.107 0.099z"></path>
</svg>
